<mxfile host="app.diagrams.net" modified="2023-11-15T18:37:38.129Z" agent="Mozilla/5.0 (Windows NT 10.0; Win64; x64) AppleWebKit/537.36 (KHTML, like Gecko) Chrome/119.0.0.0 Safari/537.36" etag="p38tlWR7ldgzbO492cYM" version="22.1.2" type="onedrive">
  <diagram name="Trang-1" id="UJ0_bFCNhnJ5Gmwlx7p4">
    <mxGraphModel dx="1248" dy="636" grid="1" gridSize="10" guides="1" tooltips="1" connect="1" arrows="1" fold="1" page="1" pageScale="1" pageWidth="827" pageHeight="1169" math="0" shadow="0">
      <root>
        <mxCell id="0" />
        <mxCell id="1" parent="0" />
        <mxCell id="mVMGHP-6SEDZObsIjdje-1" value="" style="edgeStyle=orthogonalEdgeStyle;rounded=0;orthogonalLoop=1;jettySize=auto;html=1;" edge="1" parent="1" source="mVMGHP-6SEDZObsIjdje-2" target="mVMGHP-6SEDZObsIjdje-4">
          <mxGeometry relative="1" as="geometry" />
        </mxCell>
        <mxCell id="mVMGHP-6SEDZObsIjdje-2" value="start" style="ellipse;whiteSpace=wrap;html=1;" vertex="1" parent="1">
          <mxGeometry x="340" y="10" width="120" height="80" as="geometry" />
        </mxCell>
        <mxCell id="mVMGHP-6SEDZObsIjdje-3" value="" style="edgeStyle=orthogonalEdgeStyle;rounded=0;orthogonalLoop=1;jettySize=auto;html=1;" edge="1" parent="1" source="mVMGHP-6SEDZObsIjdje-4" target="mVMGHP-6SEDZObsIjdje-7">
          <mxGeometry relative="1" as="geometry" />
        </mxCell>
        <mxCell id="mVMGHP-6SEDZObsIjdje-4" value="i&amp;lt;100" style="rhombus;whiteSpace=wrap;html=1;" vertex="1" parent="1">
          <mxGeometry x="360" y="120" width="80" height="80" as="geometry" />
        </mxCell>
        <mxCell id="mVMGHP-6SEDZObsIjdje-33" style="edgeStyle=orthogonalEdgeStyle;rounded=0;orthogonalLoop=1;jettySize=auto;html=1;entryX=0.5;entryY=0;entryDx=0;entryDy=0;" edge="1" parent="1" source="mVMGHP-6SEDZObsIjdje-7" target="mVMGHP-6SEDZObsIjdje-9">
          <mxGeometry relative="1" as="geometry" />
        </mxCell>
        <mxCell id="mVMGHP-6SEDZObsIjdje-34" value="True" style="edgeLabel;html=1;align=center;verticalAlign=middle;resizable=0;points=[];" vertex="1" connectable="0" parent="mVMGHP-6SEDZObsIjdje-33">
          <mxGeometry x="-0.3455" y="1" relative="1" as="geometry">
            <mxPoint as="offset" />
          </mxGeometry>
        </mxCell>
        <mxCell id="mVMGHP-6SEDZObsIjdje-35" style="edgeStyle=orthogonalEdgeStyle;rounded=0;orthogonalLoop=1;jettySize=auto;html=1;entryX=0.5;entryY=0;entryDx=0;entryDy=0;" edge="1" parent="1" source="mVMGHP-6SEDZObsIjdje-7" target="mVMGHP-6SEDZObsIjdje-12">
          <mxGeometry relative="1" as="geometry" />
        </mxCell>
        <mxCell id="mVMGHP-6SEDZObsIjdje-36" value="False" style="edgeLabel;html=1;align=center;verticalAlign=middle;resizable=0;points=[];" vertex="1" connectable="0" parent="mVMGHP-6SEDZObsIjdje-35">
          <mxGeometry x="0.04" y="-2" relative="1" as="geometry">
            <mxPoint x="2" y="-2" as="offset" />
          </mxGeometry>
        </mxCell>
        <mxCell id="mVMGHP-6SEDZObsIjdje-7" value="i%3==0 &amp;amp;&amp;amp;&amp;nbsp;&lt;br&gt;i%5==0" style="rhombus;whiteSpace=wrap;html=1;" vertex="1" parent="1">
          <mxGeometry x="330" y="280" width="140" height="80" as="geometry" />
        </mxCell>
        <mxCell id="mVMGHP-6SEDZObsIjdje-37" style="edgeStyle=orthogonalEdgeStyle;rounded=0;orthogonalLoop=1;jettySize=auto;html=1;entryX=0;entryY=0.5;entryDx=0;entryDy=0;" edge="1" parent="1" source="mVMGHP-6SEDZObsIjdje-9" target="mVMGHP-6SEDZObsIjdje-28">
          <mxGeometry relative="1" as="geometry">
            <Array as="points">
              <mxPoint x="230" y="1050" />
            </Array>
          </mxGeometry>
        </mxCell>
        <mxCell id="mVMGHP-6SEDZObsIjdje-9" value="fizzbuzz" style="shape=parallelogram;perimeter=parallelogramPerimeter;whiteSpace=wrap;html=1;fixedSize=1;" vertex="1" parent="1">
          <mxGeometry x="170" y="440" width="120" height="60" as="geometry" />
        </mxCell>
        <mxCell id="mVMGHP-6SEDZObsIjdje-38" style="edgeStyle=orthogonalEdgeStyle;rounded=0;orthogonalLoop=1;jettySize=auto;html=1;" edge="1" parent="1" source="mVMGHP-6SEDZObsIjdje-12" target="mVMGHP-6SEDZObsIjdje-17">
          <mxGeometry relative="1" as="geometry" />
        </mxCell>
        <mxCell id="mVMGHP-6SEDZObsIjdje-39" value="False" style="edgeLabel;html=1;align=center;verticalAlign=middle;resizable=0;points=[];" vertex="1" connectable="0" parent="mVMGHP-6SEDZObsIjdje-38">
          <mxGeometry x="0.0048" relative="1" as="geometry">
            <mxPoint as="offset" />
          </mxGeometry>
        </mxCell>
        <mxCell id="mVMGHP-6SEDZObsIjdje-40" style="edgeStyle=orthogonalEdgeStyle;rounded=0;orthogonalLoop=1;jettySize=auto;html=1;" edge="1" parent="1" source="mVMGHP-6SEDZObsIjdje-12" target="mVMGHP-6SEDZObsIjdje-14">
          <mxGeometry relative="1" as="geometry" />
        </mxCell>
        <mxCell id="mVMGHP-6SEDZObsIjdje-41" value="True" style="edgeLabel;html=1;align=center;verticalAlign=middle;resizable=0;points=[];" vertex="1" connectable="0" parent="mVMGHP-6SEDZObsIjdje-40">
          <mxGeometry x="-0.2" y="1" relative="1" as="geometry">
            <mxPoint as="offset" />
          </mxGeometry>
        </mxCell>
        <mxCell id="mVMGHP-6SEDZObsIjdje-12" value="i%3 == 0" style="rhombus;whiteSpace=wrap;html=1;" vertex="1" parent="1">
          <mxGeometry x="560" y="440" width="80" height="80" as="geometry" />
        </mxCell>
        <mxCell id="mVMGHP-6SEDZObsIjdje-13" style="edgeStyle=orthogonalEdgeStyle;rounded=0;orthogonalLoop=1;jettySize=auto;html=1;" edge="1" parent="1" source="mVMGHP-6SEDZObsIjdje-14">
          <mxGeometry relative="1" as="geometry">
            <mxPoint x="490" y="1050" as="targetPoint" />
            <Array as="points">
              <mxPoint x="770" y="1050" />
            </Array>
          </mxGeometry>
        </mxCell>
        <mxCell id="mVMGHP-6SEDZObsIjdje-14" value="fizz" style="shape=parallelogram;perimeter=parallelogramPerimeter;whiteSpace=wrap;html=1;fixedSize=1;" vertex="1" parent="1">
          <mxGeometry x="710" y="670" width="120" height="60" as="geometry" />
        </mxCell>
        <mxCell id="mVMGHP-6SEDZObsIjdje-15" style="edgeStyle=orthogonalEdgeStyle;rounded=0;orthogonalLoop=1;jettySize=auto;html=1;" edge="1" parent="1" source="mVMGHP-6SEDZObsIjdje-17">
          <mxGeometry relative="1" as="geometry">
            <mxPoint x="420" y="860" as="targetPoint" />
          </mxGeometry>
        </mxCell>
        <mxCell id="mVMGHP-6SEDZObsIjdje-43" value="True" style="edgeLabel;html=1;align=center;verticalAlign=middle;resizable=0;points=[];" vertex="1" connectable="0" parent="mVMGHP-6SEDZObsIjdje-15">
          <mxGeometry x="-0.2316" y="-2" relative="1" as="geometry">
            <mxPoint as="offset" />
          </mxGeometry>
        </mxCell>
        <mxCell id="mVMGHP-6SEDZObsIjdje-16" style="edgeStyle=orthogonalEdgeStyle;rounded=0;orthogonalLoop=1;jettySize=auto;html=1;" edge="1" parent="1" source="mVMGHP-6SEDZObsIjdje-17">
          <mxGeometry relative="1" as="geometry">
            <mxPoint x="620" y="870" as="targetPoint" />
          </mxGeometry>
        </mxCell>
        <mxCell id="mVMGHP-6SEDZObsIjdje-42" value="False" style="edgeLabel;html=1;align=center;verticalAlign=middle;resizable=0;points=[];" vertex="1" connectable="0" parent="mVMGHP-6SEDZObsIjdje-16">
          <mxGeometry x="-0.1525" y="-3" relative="1" as="geometry">
            <mxPoint as="offset" />
          </mxGeometry>
        </mxCell>
        <mxCell id="mVMGHP-6SEDZObsIjdje-17" value="i%5==0" style="rhombus;whiteSpace=wrap;html=1;" vertex="1" parent="1">
          <mxGeometry x="380" y="620" width="80" height="80" as="geometry" />
        </mxCell>
        <mxCell id="mVMGHP-6SEDZObsIjdje-18" style="edgeStyle=orthogonalEdgeStyle;rounded=0;orthogonalLoop=1;jettySize=auto;html=1;entryX=0.5;entryY=0;entryDx=0;entryDy=0;" edge="1" parent="1" source="mVMGHP-6SEDZObsIjdje-19" target="mVMGHP-6SEDZObsIjdje-28">
          <mxGeometry relative="1" as="geometry" />
        </mxCell>
        <mxCell id="mVMGHP-6SEDZObsIjdje-19" value="buzz" style="shape=parallelogram;perimeter=parallelogramPerimeter;whiteSpace=wrap;html=1;fixedSize=1;" vertex="1" parent="1">
          <mxGeometry x="360" y="860" width="120" height="60" as="geometry" />
        </mxCell>
        <mxCell id="mVMGHP-6SEDZObsIjdje-25" style="edgeStyle=orthogonalEdgeStyle;rounded=0;orthogonalLoop=1;jettySize=auto;html=1;entryX=1;entryY=0.5;entryDx=0;entryDy=0;" edge="1" parent="1" source="mVMGHP-6SEDZObsIjdje-26" target="mVMGHP-6SEDZObsIjdje-28">
          <mxGeometry relative="1" as="geometry">
            <Array as="points">
              <mxPoint x="620" y="1050" />
            </Array>
          </mxGeometry>
        </mxCell>
        <mxCell id="mVMGHP-6SEDZObsIjdje-26" value="i" style="shape=parallelogram;perimeter=parallelogramPerimeter;whiteSpace=wrap;html=1;fixedSize=1;" vertex="1" parent="1">
          <mxGeometry x="560" y="870" width="120" height="60" as="geometry" />
        </mxCell>
        <mxCell id="mVMGHP-6SEDZObsIjdje-28" value="END" style="ellipse;whiteSpace=wrap;html=1;" vertex="1" parent="1">
          <mxGeometry x="360" y="1010" width="120" height="80" as="geometry" />
        </mxCell>
      </root>
    </mxGraphModel>
  </diagram>
</mxfile>
